<?xml version="1.0" ?><svg data-name="Layer 1" id="Layer_1" viewBox="0 0 512 512" xmlns="http://www.w3.org/2000/svg"><path d="M491.92,383.35l-58-100.51A52.08,52.08,0,0,0,404.06,259L316,106.5l2.65-4.6a18.41,18.41,0,0,0,1.74-14.41A19.45,19.45,0,0,0,311.36,76a19.67,19.67,0,0,0-10.71-2.62,18.45,18.45,0,0,0-.4-7.91,19.31,19.31,0,0,0-9.13-11.84,19.51,19.51,0,0,0-14.83-2,18.72,18.72,0,0,0-7.06,3.61,19.54,19.54,0,0,0-7.63-8,19.33,19.33,0,0,0-14.49-2.07A18.45,18.45,0,0,0,236,53.06a19.72,19.72,0,0,0-21.79-8.81,18.49,18.49,0,0,0-11.3,8.63l-58,100.51a52.06,52.06,0,0,0-5.73,37.73l-88,152.46H45.7c-10.36,0-18.79,8.66-18.79,19.31A19.59,19.59,0,0,0,30,373.48a19.49,19.49,0,0,0,0,36.28,19.56,19.56,0,0,0-3.09,10.59,19.11,19.11,0,0,0,17.85,19.28,19.56,19.56,0,0,0-2.42,9.46,19.08,19.08,0,0,0,18.8,19.3H177.19a52,52,0,0,0,35.55-13.91H388.87l2.68,4.63a18.7,18.7,0,0,0,16.31,9.27,19.73,19.73,0,0,0,17.44-10.62,19,19,0,0,0,12.07,4.29,19.69,19.69,0,0,0,18.86-14.16,18.6,18.6,0,0,0,.49-8.27l.9,0a19.69,19.69,0,0,0,18.94-14.49,18.41,18.41,0,0,0-1.36-13.25,19.67,19.67,0,0,0,9.41-2.63C493.81,404,497.09,392.31,491.92,383.35Zm-343.24-189a4.94,4.94,0,0,0,.49-3.74,42.28,42.28,0,0,1,4.25-32.27l58-100.51a8.57,8.57,0,0,1,5.29-4,9.46,9.46,0,0,1,7.31,1,9.17,9.17,0,0,1,3.78,12.27l-29.09,50.39a4.94,4.94,0,0,0,1.82,6.75,5,5,0,0,0,6.75-1.81l.17-.29,0-.06,28.81-49.89.16-.29,7.55-13.08a8.58,8.58,0,0,1,5.44-4.05,9.81,9.81,0,0,1,11.66,6.73,8.56,8.56,0,0,1-.8,6.74l-36.72,63.61a5,5,0,0,0,1.82,6.76,4.59,4.59,0,0,0,.5.24l.3.11.16.06a4.87,4.87,0,0,0,1.51.24,5,5,0,0,0,3.63-1.6l.12-.14a1.83,1.83,0,0,0,.21-.26,2.59,2.59,0,0,0,.32-.47l41.36-71.62a8.53,8.53,0,0,1,5.29-4A9.81,9.81,0,0,1,290.7,68a8.5,8.5,0,0,1-.83,6.59l-4.57,7.91-.07.11-36.72,63.6a5,5,0,0,0,1.82,6.76,4.44,4.44,0,0,0,.49.24l.34.13.11,0a4.87,4.87,0,0,0,4.83-1l.06-.05.23-.23c.07-.08.14-.15.2-.23s.11-.13.16-.19a5.25,5.25,0,0,0,.33-.49l36.75-63.68a9.24,9.24,0,0,1,12.59-2.93,9.58,9.58,0,0,1,4.49,5.68,8.56,8.56,0,0,1-.8,6.74l-39.37,68.2q-.14.24-.24.48L260,183.9a5,5,0,0,0,1.82,6.76,5,5,0,0,0,6.76-1.81l14.3-24.77a17.93,17.93,0,0,1,24.46-6.57l2.21,1.75-27.94,48.39a33,33,0,0,1-15.33,13.74,4.83,4.83,0,0,0-1,.42l0,0c-1,.41-2.06.77-3.12,1.09L227,234.82a5,5,0,0,0-2.71,2.22l-47.1,81.59A42.87,42.87,0,0,0,155.84,313H100a10.31,10.31,0,0,0-10.3,10.29v2.35a27.67,27.67,0,0,0,6.59,17.95H62.52ZM305.4,347.44l-.09.45H211.8L185.48,324.8l-.3-.27,46.72-80.94,33.15-11.24.47-.15,46.72,80.92Zm-94.65,97.15a4.94,4.94,0,0,0-3.5,1.46,42.81,42.81,0,0,1-30.06,12.46h-116a9.45,9.45,0,0,1,0-18.86h58a4.94,4.94,0,1,0,0-9.88H45.7a9.44,9.44,0,0,1,0-18.85h73.44a4.94,4.94,0,1,0,0-9.88H36.44a9.43,9.43,0,0,1,0-18.84h82.7a4.95,4.95,0,1,0,0-9.89H45.7a9.44,9.44,0,0,1,0-18.84h78.75a4.07,4.07,0,0,0,.5,0h21.12a4.94,4.94,0,0,0,0-9.88h-28.6a17.94,17.94,0,0,1-17.91-17.93l.41-2.76h55.87a33.22,33.22,0,0,1,23,9.24l27.85,24.45a5,5,0,0,0,3.26,1.22H304.2A42.84,42.84,0,0,0,310,379l27.94,48.38A10.31,10.31,0,0,0,352,431.2l2-1.18a27.65,27.65,0,0,0,12.24-14.68l16.9,29.25Zm268.9-43.87a9.18,9.18,0,0,1-12.61-3l-16.92-29.31L438,347.47a5,5,0,0,0-6.76-1.82,5,5,0,0,0-1.82,6.76l.19.33,0,0,8,13.81L466.19,416a8.59,8.59,0,0,1,.82,6.59,9.53,9.53,0,0,1-4.53,5.83,9.19,9.19,0,0,1-12.54-2.88l-36.79-63.73a5,5,0,0,0-1.32-1.47l-.18-.12-.21-.14a4.94,4.94,0,0,0-7.53,4.34,5,5,0,0,0,.66,2.34l36.74,63.61.1.15,4.54,7.88a8.64,8.64,0,0,1,.78,6.74,9.59,9.59,0,0,1-4.5,5.68,9.16,9.16,0,0,1-12.6-3L388.27,376.2a4.94,4.94,0,0,0-1.72-1.74,2.79,2.79,0,0,0-.34-.18l-.07,0a4.94,4.94,0,0,0-6.45,6.9l36.74,63.61a8.58,8.58,0,0,1,.82,6.59,9.5,9.5,0,0,1-4.53,5.83,9.15,9.15,0,0,1-12.61-3L360.73,386c-.07-.12-.15-.24-.23-.36l-10.59-18.35a4.95,4.95,0,1,0-8.57,4.94L355.62,397a17.92,17.92,0,0,1-6.55,24.48l-2.58,1-28-48.39A33.06,33.06,0,0,1,314.3,354a4.66,4.66,0,0,0,.14-1.13h0c.15-1.09.36-2.18.62-3.26l7.24-36.35a5,5,0,0,0-.56-3.44L274.63,228.2a42.94,42.94,0,0,0,15.49-15.61l27.95-48.4a10.33,10.33,0,0,0-3.77-14.05L312.25,149a27.66,27.66,0,0,0-18.86-3.23l16.92-29.33,86.18,149.27a5,5,0,0,0,3,2.31,42.22,42.22,0,0,1,25.82,19.82L483.36,388.3A9.21,9.21,0,0,1,479.65,400.72Z"/></svg>